<?xml version="1.0" encoding="UTF-8"?>
<!DOCTYPE svg PUBLIC "-//W3C//DTD SVG 1.1//EN" "http://www.w3.org/Graphics/SVG/1.1/DTD/svg11.dtd">
<!-- Creator: CorelDRAW X7 -->
<svg xmlns="http://www.w3.org/2000/svg" xml:space="preserve" width="296.023mm" height="64.3087mm" version="1.1" style="shape-rendering:geometricPrecision; text-rendering:geometricPrecision; image-rendering:optimizeQuality; fill-rule:evenodd; clip-rule:evenodd"
viewBox="0 0 7849 1705"
 xmlns:xlink="http://www.w3.org/1999/xlink">
 <defs>
  <style type="text/css">
   <![CDATA[
    .fil0 {fill:#FEFEFE;fill-rule:nonzero}
   ]]>
  </style>
 </defs>
 <g id="Layer_x0020_1">
  <metadata id="CorelCorpID_0Corel-Layer"/>
  <path class="fil0" d="M917 0c23,23 34,52 34,88 0,30 -6,60 -19,91l-460 1077 -20 9 -452 -1265 153 0 375 1063 382 -884c13,-29 20,-61 20,-93 0,-32 -9,-57 -27,-75l14 -11zm343 1256c-49,0 -86,-10 -112,-32 -26,-21 -39,-43 -41,-65l-1 -30 0 -770 125 0 0 770c0,35 7,61 21,80 14,18 27,28 40,29l22 4 55 0 0 14 -109 0zm-144 -1098c-14,-14 -21,-32 -21,-54 0,-21 7,-40 21,-55 15,-15 33,-22 54,-22 22,0 40,7 55,22 15,15 22,34 22,55 0,22 -7,40 -22,54 -15,14 -33,21 -55,21 -21,0 -39,-7 -54,-21zm903 264c-19,-16 -50,-29 -92,-40 -43,-10 -75,-16 -96,-16 -22,0 -34,0 -38,0 -65,1 -111,18 -140,50 -29,31 -43,67 -43,106 0,40 13,73 38,100 25,27 56,48 94,63 38,15 78,32 122,51 44,19 84,38 122,58 38,20 69,49 94,86 25,38 38,85 38,141 0,57 -20,104 -59,144 -40,39 -84,66 -132,79 -49,13 -101,20 -157,20 -122,0 -214,-27 -275,-81l11 -11c24,23 59,41 107,56 47,14 93,21 137,21 71,0 129,-19 175,-58 46,-39 69,-87 69,-146 0,-58 -17,-104 -52,-140 -35,-35 -77,-62 -127,-82 -49,-20 -99,-40 -149,-59 -51,-20 -93,-48 -128,-83 -35,-35 -52,-76 -52,-123 0,-46 11,-84 32,-114 22,-29 51,-50 87,-62 61,-20 122,-30 183,-30 103,0 183,19 240,57l-9 13zm359 628c0,95 25,155 76,181 23,12 54,18 91,18 75,0 143,-29 202,-86 59,-57 91,-111 96,-160l0 -644 126 0 0 770c0,35 7,61 20,80 14,18 28,28 42,29l20 4 56 0 0 14 -110 0c-49,0 -86,-10 -112,-32 -26,-21 -39,-43 -40,-65l-2 -30 0 -77c-22,51 -60,99 -115,144 -55,45 -115,68 -180,68 -65,0 -119,-7 -160,-19 -41,-13 -71,-30 -89,-53 -31,-37 -46,-85 -46,-144l0 -689 125 0 0 691zm756 -210c0,-156 37,-276 113,-361 75,-85 188,-127 339,-127 111,0 224,20 339,59l0 867c-1,285 -125,427 -373,427 -136,0 -253,-44 -350,-133l13 -10c102,86 215,129 337,129 165,0 248,-138 248,-413l0 -178c-23,42 -61,79 -113,112 -53,32 -115,48 -187,48 -244,-6 -366,-146 -366,-420zm368 406c80,0 149,-22 206,-65 58,-43 88,-86 92,-127l0 -634c-86,-36 -159,-54 -219,-54 -107,0 -187,42 -241,125 -54,83 -81,199 -81,349 0,270 81,406 243,406zm680 -428c0,149 26,258 78,327 52,70 121,104 206,104 119,0 226,-18 319,-54l5 13c-95,37 -203,56 -324,56 -120,0 -218,-36 -293,-108 -75,-72 -113,-183 -113,-332 0,-150 39,-266 118,-348 79,-83 180,-124 302,-124 98,0 181,29 248,88 67,58 100,145 100,260 0,6 0,12 0,18l-641 0c-3,32 -5,66 -5,100zm524 -114c-1,-115 -23,-200 -66,-255 -43,-55 -99,-83 -167,-83 -68,0 -129,30 -182,90 -54,60 -87,142 -102,248l517 0zm941 552c-49,0 -87,-10 -113,-32 -25,-21 -39,-43 -40,-65l-2 -30 0 -564c0,-94 -24,-155 -73,-181 -25,-12 -57,-18 -94,-18 -76,0 -145,30 -206,91 -61,60 -92,114 -92,162l0 637 -125 0 0 -897 125 0 0 205c21,-52 58,-100 113,-145 55,-45 116,-67 182,-67 66,0 119,6 160,19 42,12 72,30 91,53 30,37 45,85 45,143l0 562c0,35 7,61 20,80 14,18 28,28 43,29l19 4 56 0 0 14 -109 0zm382 0c-49,0 -87,-10 -112,-32 -26,-21 -39,-43 -41,-65l-1 -30 0 -770 125 0 0 770c0,35 7,61 21,80 14,18 27,28 40,29l22 4 55 0 0 14 -109 0zm-144 -1098c-14,-14 -21,-32 -21,-54 0,-21 7,-40 21,-55 15,-15 33,-22 54,-22 22,0 40,7 55,22 15,15 22,34 22,55 0,22 -7,40 -22,54 -15,14 -33,21 -55,21 -21,0 -39,-7 -54,-21zm523 892c0,95 25,155 75,181 24,12 54,18 92,18 75,0 142,-29 201,-86 60,-57 92,-111 96,-160l0 -644 126 0 0 770c0,35 7,61 21,80 13,18 28,28 42,29l20 4 55 0 0 14 -109 0c-49,0 -87,-10 -112,-32 -26,-21 -40,-43 -41,-65l-2 -30 0 -77c-21,51 -59,99 -114,144 -55,45 -116,68 -181,68 -65,0 -118,-7 -160,-19 -41,-13 -70,-30 -88,-53 -31,-37 -47,-85 -47,-144l0 -689 126 0 0 691zm1342 -628c-19,-16 -50,-29 -92,-40 -43,-10 -75,-16 -96,-16 -22,0 -34,0 -38,0 -65,1 -111,18 -140,50 -29,31 -43,67 -43,106 0,40 12,73 38,100 25,27 56,48 94,63 38,15 78,32 122,51 44,19 84,38 122,58 38,20 69,49 94,86 25,38 38,85 38,141 0,57 -20,104 -59,144 -40,39 -84,66 -132,79 -49,13 -101,20 -157,20 -122,0 -214,-27 -275,-81l11 -11c24,23 59,41 107,56 47,14 93,21 137,21 71,0 129,-19 175,-58 46,-39 69,-87 69,-146 0,-58 -17,-104 -52,-140 -35,-35 -77,-62 -127,-82 -49,-20 -99,-40 -149,-59 -51,-20 -93,-48 -128,-83 -35,-35 -52,-76 -52,-123 0,-46 11,-84 32,-114 22,-29 51,-50 87,-62 61,-20 122,-30 183,-30 102,0 183,19 240,57l-9 13z"/>
 </g>
</svg>
