<?xml version="1.0" encoding="UTF-8"?>
<!DOCTYPE svg PUBLIC "-//W3C//DTD SVG 1.1//EN" "http://www.w3.org/Graphics/SVG/1.1/DTD/svg11.dtd">
<!-- Creator: CorelDRAW X7 -->
<svg xmlns="http://www.w3.org/2000/svg" xml:space="preserve" width="534.458mm" height="629.554mm" version="1.1" style="shape-rendering:geometricPrecision; text-rendering:geometricPrecision; image-rendering:optimizeQuality; fill-rule:evenodd; clip-rule:evenodd"
viewBox="0 0 19329 22768"
 xmlns:xlink="http://www.w3.org/1999/xlink">
 <defs>
  <style type="text/css">
   <![CDATA[
    .fil0 {fill:#FEFEFE}
    .fil1 {fill:#FEFEFE;fill-rule:nonzero}
   ]]>
  </style>
 </defs>
 <g id="Layer_x0020_1">
  <metadata id="CorelCorpID_0Corel-Layer"/>
  <path class="fil0" d="M2088 20879l7576 0c4167,0 7577,-3410 7577,-7577l0 -5364c0,-4167 -3410,-7576 -7577,-7576l0 0c-4167,0 -7576,3409 -7576,7576l0 12941zm-364 363l7940 0c4367,0 7941,-3573 7941,-7940l0 -5362c0,-4367 -3574,-7940 -7941,-7940l0 0c-4367,0 -7940,3573 -7940,7940l0 13302z"/>
  <path class="fil1" d="M10672 15425c766,-599 1456,-1235 2072,-1909 613,-674 1136,-1355 1564,-2045 431,-687 760,-1375 987,-2060 230,-683 343,-1337 343,-1956 0,-363 -38,-699 -115,-1013 -77,-311 -187,-581 -334,-809 -144,-225 -320,-403 -525,-534 -203,-131 -433,-194 -690,-194l-124 0c-76,0 -139,-22 -189,-68 -50,-42 -77,-103 -77,-178 0,-106 39,-173 118,-207 76,-34 162,-50 259,-50 322,0 617,75 886,226 268,149 498,358 687,627 190,268 336,586 442,951 106,365 158,762 158,1188 0,696 -120,1411 -359,2143 -241,733 -595,1470 -1064,2212 -468,741 -1050,1481 -1744,2215 -692,735 -1490,1454 -2394,2153 -20,18 -50,38 -86,61 -34,20 -76,32 -124,32 -83,0 -146,-27 -185,-82 -40,-56 -60,-121 -60,-196 0,-29 4,-94 11,-191 7,-97 13,-214 22,-356 9,-140 21,-296 34,-465 11,-171 23,-342 32,-516 9,-174 18,-343 22,-505 7,-162 12,-309 12,-435 4,-965 -68,-1855 -219,-2671 -149,-818 -388,-1526 -712,-2123 -327,-600 -747,-1067 -1258,-1405 -514,-336 -1134,-505 -1860,-505 -541,0 -1019,75 -1429,221 -412,149 -757,343 -1035,584 -277,243 -487,516 -626,823 -142,306 -212,617 -212,935 0,282 47,534 142,755 95,224 225,413 390,568 164,156 360,275 584,357 225,81 466,121 728,121 218,0 419,-22 599,-72 181,-47 336,-101 462,-162 129,-59 228,-113 300,-165 75,-49 115,-79 124,-88 20,-22 48,-36 75,-42 29,-7 56,-12 83,-12 65,0 124,21 171,63 50,43 72,100 72,169 0,84 -27,147 -85,192 -9,9 -57,45 -144,108 -88,63 -210,133 -368,205 -155,73 -345,140 -563,201 -221,63 -465,92 -733,92 -331,0 -640,-54 -927,-164 -286,-111 -531,-266 -739,-469 -205,-203 -370,-444 -487,-724 -119,-279 -180,-588 -180,-926 0,-379 83,-751 246,-1118 162,-365 403,-690 723,-976 318,-286 713,-516 1181,-690 469,-173 1012,-261 1628,-261 798,0 1483,173 2058,518 575,345 1048,834 1420,1463 372,629 647,1389 825,2274 178,889 268,1874 268,2956 0,304 -7,617 -20,942 -14,322 -34,651 -61,987z"/>
  <path class="fil0" d="M2134 5574l-2134 -2144 0 19338 19329 0 0 -16267 -3427 3569c-156,181 74,437 260,251l2805 -2923 4 15013 -18611 0 -4 -18110c887,894 2661,2681 2661,2681 154,140 401,-109 255,-255l-1138 -1153zm7746 10813l0 0c70,70 71,184 1,254l-5759 5770 -509 0 6013 -6024c70,-70 184,-70 254,0zm2055 -679l0 0c70,-69 182,-73 252,-5l6784 6514c0,0 0,194 0,194 0,0 -320,0 -320,0l-6711 -6450c-70,-68 -74,-183 -5,-253z"/>
  <path class="fil0" d="M9929 13747l0 0c-72,69 -186,66 -255,-4l-2290 -2323c-69,-71 -67,-186 4,-255l0 0c71,-69 185,-67 255,3l2289 2324c70,70 68,186 -3,255z"/>
  <path class="fil0" d="M6171 10050l0 0c-71,69 -186,68 -255,-4l-1610 -1669c-69,-72 -67,-186 4,-255l0 0c71,-69 186,-68 255,4l1610 1669c69,71 67,186 -4,255z"/>
 </g>
</svg>
