<?xml version="1.0" encoding="UTF-8"?>
<!DOCTYPE svg PUBLIC "-//W3C//DTD SVG 1.1//EN" "http://www.w3.org/Graphics/SVG/1.1/DTD/svg11.dtd">
<!-- Creator: CorelDRAW X7 -->
<svg xmlns="http://www.w3.org/2000/svg" xml:space="preserve" width="33.5764mm" height="39.2289mm" version="1.1" style="shape-rendering:geometricPrecision; text-rendering:geometricPrecision; image-rendering:optimizeQuality; fill-rule:evenodd; clip-rule:evenodd"
viewBox="0 0 876 1024"
 xmlns:xlink="http://www.w3.org/1999/xlink">
 <defs>
  <style type="text/css">
   <![CDATA[
    .str0 {stroke:white;stroke-width:11.0459}
    .fil0 {fill:none}
    .fil1 {fill:white}
   ]]>
  </style>
 </defs>
 <g id="Layer_x0020_1">
  <metadata id="CorelCorpID_0Corel-Layer"/>
  <polyline class="fil0 str0" points="729,453 871,305 871,1018 6,1018 6,164 149,308 "/>
  <line class="fil0 str0" x1="455" y1="726" x2="163" y2= "1018" />
  <line class="fil0 str0" x1="539" y1="699" x2="871" y2= "1018" />
  <line class="fil0 str0" x1="334" y1="494" x2="452" y2= "613" />
  <path class="fil0 str0" d="M91 940l-4 -607c0,0 10,-324 352,-327 341,-4 344,327 344,327l0 354c0,0 0,260 -282,253 -281,-7 -410,0 -410,0z"/>
  <path class="fil1" d="M607 202c0,37 90,-7 90,127 0,127 -129,283 -207,334 0,-98 8,-165 -20,-248 -23,-68 -65,-125 -140,-140 -233,-46 -270,238 -109,238 33,0 93,-14 93,-39 0,-9 -6,-15 -15,-15 -16,0 -39,33 -93,21 -33,-8 -54,-34 -54,-73 0,-60 64,-104 125,-104l26 0c114,0 167,153 160,277l-6 120c-3,49 121,-75 127,-81 36,-39 76,-86 100,-135 133,-264 -77,-330 -77,-282z"/>
  <line class="fil0 str0" x1="194" y1="356" x2="279" y2= "444" />
 </g>
</svg>
